<svg xmlns="http://www.w3.org/2000/svg" viewBox="0 0 64 64">
  <defs>
    <linearGradient id="g" x1="0" y1="0" x2="1" y2="1">
      <stop offset="0%" stop-color="#00ffff"/>
      <stop offset="100%" stop-color="#66b2ff"/>
    </linearGradient>
  </defs>
  <rect x="12" y="12" width="40" height="40" rx="6" ry="6" fill="#0f0f10" stroke="url(#g)" stroke-width="2"/>
  <!-- pins -->
  <g stroke="url(#g)" stroke-width="2" stroke-linecap="round">
    <line x1="20" y1="8" x2="20" y2="12"/>
    <line x1="28" y1="8" x2="28" y2="12"/>
    <line x1="36" y1="8" x2="36" y2="12"/>
    <line x1="44" y1="8" x2="44" y2="12"/>
    <line x1="20" y1="52" x2="20" y2="56"/>
    <line x1="28" y1="52" x2="28" y2="56"/>
    <line x1="36" y1="52" x2="36" y2="56"/>
    <line x1="44" y1="52" x2="44" y2="56"/>
    <line x1="8" y1="20" x2="12" y2="20"/>
    <line x1="8" y1="28" x2="12" y2="28"/>
    <line x1="8" y1="36" x2="12" y2="36"/>
    <line x1="52" y1="20" x2="56" y2="20"/>
    <line x1="52" y1="28" x2="56" y2="28"/>
    <line x1="52" y1="36" x2="56" y2="36"/>
  </g>
  <rect x="22" y="22" width="20" height="20" rx="3" ry="3" fill="url(#g)" opacity="0.25"/>
</svg>


